<svg width="61" height="113" viewBox="0 0 61 113" fill="none" xmlns="http://www.w3.org/2000/svg">
<path d="M30.4999 61L30.4999 9.53674e-07" stroke="url(#paint0_linear_0_52)"/>
<path d="M2.68788 95.52C2.68788 95.904 2.78921 96.2507 2.99188 96.56C3.19454 96.8693 3.43988 97.1413 3.72788 97.376C4.02654 97.6 4.42654 97.872 4.92788 98.192C5.47188 98.544 5.89854 98.848 6.20788 99.104C6.52788 99.36 6.79988 99.6693 7.02388 100.032C7.24788 100.384 7.35988 100.789 7.35988 101.248C7.35988 102.155 7.03988 102.875 6.39988 103.408C5.77054 103.931 4.95454 104.192 3.95188 104.192C3.47188 104.192 2.95988 104.128 2.41588 104C1.87188 103.861 1.50921 103.712 1.32788 103.552C1.27454 103.52 1.23721 103.488 1.21588 103.456C1.20521 103.413 1.19454 103.344 1.18388 103.248L1.11988 100.704C1.10921 100.661 1.13054 100.635 1.18388 100.624C1.24788 100.613 1.29054 100.629 1.31188 100.672C1.61054 101.291 1.88788 101.813 2.14388 102.24C2.41054 102.656 2.73054 103.019 3.10388 103.328C3.47721 103.637 3.89854 103.792 4.36788 103.792C5.30654 103.792 5.77588 103.28 5.77588 102.256C5.77588 101.765 5.66388 101.333 5.43988 100.96C5.22654 100.587 4.95988 100.277 4.63988 100.032C4.33054 99.776 3.91454 99.4773 3.39188 99.136C2.91188 98.8267 2.52788 98.56 2.23988 98.336C1.95188 98.1013 1.70654 97.824 1.50388 97.504C1.31188 97.184 1.21588 96.8213 1.21588 96.416C1.21588 95.84 1.37588 95.36 1.69588 94.976C2.02654 94.5813 2.44788 94.2933 2.95988 94.112C3.47188 93.92 4.01588 93.824 4.59188 93.824C4.96521 93.824 5.35454 93.8613 5.75988 93.936C6.17588 94 6.49588 94.08 6.71988 94.176C6.81588 94.2293 6.87988 94.2827 6.91188 94.336C6.94388 94.3787 6.95988 94.432 6.95988 94.496V96.848C6.95988 96.88 6.93321 96.9067 6.87988 96.928C6.82654 96.9387 6.78921 96.928 6.76788 96.896C6.73588 96.832 6.61854 96.56 6.41588 96.08C6.22388 95.5893 5.92521 95.152 5.51988 94.768C5.12521 94.3733 4.67188 94.176 4.15988 94.176C3.73321 94.176 3.38121 94.304 3.10388 94.56C2.82654 94.8053 2.68788 95.1253 2.68788 95.52ZM14.91 104.192C13.598 104.192 12.5207 103.936 11.678 103.424C10.8353 102.912 10.2273 102.267 9.854 101.488C9.48067 100.699 9.294 99.8667 9.294 98.992C9.294 97.936 9.55 97.0187 10.062 96.24C10.5847 95.4507 11.2727 94.8533 12.126 94.448C12.99 94.032 13.9233 93.824 14.926 93.824C15.4167 93.824 15.9287 93.872 16.462 93.968C16.9953 94.0533 17.4273 94.16 17.758 94.288C17.8433 94.3413 17.8967 94.3893 17.918 94.432C17.95 94.4747 17.966 94.5493 17.966 94.656L18.078 96.8C18.078 96.832 18.0513 96.848 17.998 96.848C17.9553 96.848 17.9233 96.832 17.902 96.8C17.5073 95.9893 17.0007 95.3653 16.382 94.928C15.774 94.48 15.0807 94.256 14.302 94.256C13.2887 94.256 12.51 94.624 11.966 95.36C11.4327 96.096 11.166 97.1307 11.166 98.464C11.166 99.424 11.3313 100.32 11.662 101.152C12.0033 101.984 12.462 102.645 13.038 103.136C13.614 103.627 14.2487 103.872 14.942 103.872C16.0407 103.872 17.0647 103.061 18.014 101.44C18.0353 101.408 18.062 101.392 18.094 101.392C18.158 101.392 18.19 101.424 18.19 101.488L18.094 103.328C18.0727 103.467 18.0513 103.557 18.03 103.6C18.0087 103.632 17.95 103.664 17.854 103.696C16.9153 104.027 15.934 104.192 14.91 104.192ZM30.7303 103.808C30.7623 103.808 30.7783 103.84 30.7783 103.904C30.7889 103.968 30.7729 104 30.7303 104H28.1063C27.8503 104 27.4023 103.573 26.7623 102.72C26.1329 101.856 25.3703 100.56 24.4743 98.832C24.1756 98.9067 23.8449 98.944 23.4823 98.944C23.4289 98.944 23.3596 98.9333 23.2743 98.912V102.704C23.2636 103.013 23.2849 103.248 23.3383 103.408C23.4023 103.557 23.5089 103.664 23.6583 103.728C23.8183 103.781 24.0583 103.808 24.3783 103.808C24.4209 103.808 24.4423 103.84 24.4423 103.904C24.4529 103.968 24.4369 104 24.3943 104C24.0316 104 23.7543 103.995 23.5623 103.984L22.3783 103.968L21.1783 103.984C20.9649 103.995 20.6769 104 20.3143 104C20.2716 104 20.2449 103.968 20.2343 103.904C20.2343 103.84 20.2556 103.808 20.2983 103.808C20.6503 103.808 20.9116 103.781 21.0823 103.728C21.2529 103.664 21.3649 103.557 21.4183 103.408C21.4823 103.248 21.5196 103.013 21.5303 102.704V95.296C21.5303 94.976 21.4983 94.7413 21.4343 94.592C21.3809 94.4427 21.2743 94.3413 21.1143 94.288C20.9543 94.224 20.7089 94.192 20.3783 94.192C20.3356 94.192 20.3143 94.16 20.3143 94.096C20.3143 94.032 20.3356 94 20.3783 94L21.2263 94.016C21.6956 94.0373 22.0796 94.048 22.3783 94.048C22.7409 94.048 23.1356 94.0267 23.5623 93.984C23.9036 93.9627 24.1276 93.952 24.2343 93.952C25.3116 93.952 26.1169 94.128 26.6503 94.48C27.1943 94.832 27.4663 95.3227 27.4663 95.952C27.4663 96.4107 27.3116 96.8533 27.0023 97.28C26.7036 97.7067 26.3036 98.064 25.8023 98.352C26.6343 99.728 27.3383 100.811 27.9143 101.6C28.5009 102.379 29.0129 102.944 29.4503 103.296C29.8983 103.637 30.3249 103.808 30.7303 103.808ZM23.2743 98.464C23.4023 98.496 23.5569 98.512 23.7383 98.512C24.4423 98.512 24.9383 98.3573 25.2263 98.048C25.5249 97.7387 25.6743 97.2213 25.6743 96.496C25.6743 95.7387 25.5249 95.184 25.2263 94.832C24.9383 94.4693 24.5809 94.288 24.1543 94.288C23.8663 94.288 23.6689 94.3093 23.5623 94.352C23.4556 94.384 23.3809 94.4693 23.3383 94.608C23.3063 94.736 23.2849 94.976 23.2743 95.328V98.464ZM36.0846 104.192C35.0713 104.192 34.1753 103.963 33.3966 103.504C32.618 103.045 32.0153 102.427 31.5886 101.648C31.1726 100.859 30.9646 99.984 30.9646 99.024C30.9646 98.0427 31.194 97.1573 31.6526 96.368C32.122 95.5787 32.762 94.96 33.5726 94.512C34.394 94.0533 35.3166 93.824 36.3406 93.824C37.3753 93.824 38.2873 94.048 39.0766 94.496C39.866 94.9333 40.474 95.5413 40.9006 96.32C41.338 97.088 41.5566 97.9467 41.5566 98.896C41.5566 99.952 41.306 100.885 40.8046 101.696C40.314 102.496 39.6473 103.115 38.8046 103.552C37.9726 103.979 37.066 104.192 36.0846 104.192ZM36.7566 103.776C37.3433 103.776 37.8553 103.616 38.2926 103.296C38.7406 102.976 39.0873 102.523 39.3326 101.936C39.578 101.339 39.7006 100.64 39.7006 99.84C39.7006 98.8587 39.5353 97.936 39.2046 97.072C38.874 96.208 38.41 95.5147 37.8126 94.992C37.2153 94.4693 36.5326 94.208 35.7646 94.208C35.178 94.208 34.6606 94.368 34.2126 94.688C33.7646 95.008 33.418 95.4667 33.1726 96.064C32.9273 96.6507 32.8046 97.344 32.8046 98.144C32.8046 99.104 32.97 100.021 33.3006 100.896C33.6313 101.76 34.0953 102.459 34.6926 102.992C35.3006 103.515 35.9886 103.776 36.7566 103.776ZM43.4983 104C43.4769 104 43.4663 103.968 43.4663 103.904C43.4663 103.84 43.4769 103.808 43.4983 103.808C43.8289 103.808 44.0689 103.781 44.2183 103.728C44.3676 103.675 44.4636 103.573 44.5063 103.424C44.5596 103.275 44.5863 103.035 44.5863 102.704V95.296C44.5863 94.976 44.5596 94.7413 44.5063 94.592C44.4529 94.4427 44.3516 94.3413 44.2023 94.288C44.0529 94.224 43.8289 94.192 43.5303 94.192C43.4983 94.192 43.4823 94.16 43.4823 94.096C43.4823 94.032 43.4983 94 43.5303 94L44.2983 94.016C44.7676 94.0373 45.1463 94.048 45.4343 94.048C45.7223 94.048 46.1116 94.0373 46.6023 94.016L47.4183 94C47.4396 94 47.4503 94.032 47.4503 94.096C47.4503 94.16 47.4396 94.192 47.4183 94.192C47.0876 94.192 46.8476 94.224 46.6983 94.288C46.5596 94.3413 46.4636 94.4427 46.4103 94.592C46.3676 94.7413 46.3409 94.9813 46.3303 95.312V102.64C46.3303 103.056 46.3889 103.333 46.5063 103.472C46.6236 103.6 46.8476 103.664 47.1783 103.664H47.6263C48.4903 103.664 49.2103 103.472 49.7863 103.088C50.3729 102.693 50.8423 102.085 51.1943 101.264C51.2156 101.243 51.2423 101.232 51.2743 101.232C51.3063 101.232 51.3383 101.243 51.3703 101.264C51.4023 101.275 51.4183 101.291 51.4183 101.312C51.3329 102.187 51.2903 103.003 51.2903 103.76C51.2903 103.92 51.2103 104 51.0503 104H43.4983ZM52.8414 104C52.82 104 52.8094 103.968 52.8094 103.904C52.8094 103.84 52.82 103.808 52.8414 103.808C53.172 103.808 53.412 103.781 53.5614 103.728C53.7107 103.675 53.8067 103.573 53.8494 103.424C53.9027 103.275 53.9294 103.035 53.9294 102.704V95.296C53.9294 94.976 53.9027 94.7413 53.8494 94.592C53.796 94.4427 53.6947 94.3413 53.5454 94.288C53.396 94.224 53.172 94.192 52.8734 94.192C52.8414 94.192 52.8254 94.16 52.8254 94.096C52.8254 94.032 52.8414 94 52.8734 94L53.6414 94.016C54.1107 94.0373 54.4894 94.048 54.7774 94.048C55.0654 94.048 55.4547 94.0373 55.9454 94.016L56.7614 94C56.7827 94 56.7934 94.032 56.7934 94.096C56.7934 94.16 56.7827 94.192 56.7614 94.192C56.4307 94.192 56.1907 94.224 56.0414 94.288C55.9027 94.3413 55.8067 94.4427 55.7534 94.592C55.7107 94.7413 55.684 94.9813 55.6734 95.312V102.64C55.6734 103.056 55.732 103.333 55.8494 103.472C55.9667 103.6 56.1907 103.664 56.5214 103.664H56.9694C57.8334 103.664 58.5534 103.472 59.1294 103.088C59.716 102.693 60.1854 102.085 60.5374 101.264C60.5587 101.243 60.5854 101.232 60.6174 101.232C60.6494 101.232 60.6814 101.243 60.7134 101.264C60.7454 101.275 60.7614 101.291 60.7614 101.312C60.676 102.187 60.6334 103.003 60.6334 103.76C60.6334 103.92 60.5534 104 60.3934 104H52.8414Z" fill="#DCCA87"/>
<defs>
<linearGradient id="paint0_linear_0_52" x1="59.0041" y1="-11.8571" x2="59.0041" y2="78.2931" gradientUnits="userSpaceOnUse">
<stop stop-color="#DCCA87"/>
<stop offset="0.430036" stop-color="#DCCA87"/>
<stop offset="0.927083" stop-color="#DCCA87" stop-opacity="0.24"/>
</linearGradient>
</defs>
</svg>
